<?xml version="1.0" encoding="UTF-8"?>
<svg width="108px" height="108px" viewBox="0 0 108 108" version="1.1" xmlns="http://www.w3.org/2000/svg" xmlns:xlink="http://www.w3.org/1999/xlink">
    <title>dalogo@2x</title>
    <defs>
        <linearGradient x1="43.1024585%" y1="6.09791359%" x2="79.6055091%" y2="85.9846658%" id="linearGradient-1">
            <stop stop-color="#2EC5FD" offset="0%"></stop>
            <stop stop-color="#C1E9FF" offset="46.869855%"></stop>
            <stop stop-color="#4999FE" offset="47.1050381%"></stop>
            <stop stop-color="#2EC5FD" offset="100%"></stop>
        </linearGradient>
        <linearGradient x1="44.615587%" y1="6.20973386%" x2="77.3800279%" y2="80.8402298%" id="linearGradient-2">
            <stop stop-color="#2EC5FD" offset="0%"></stop>
            <stop stop-color="#BFEDFF" offset="49.3963622%"></stop>
            <stop stop-color="#4697FF" offset="49.7160677%"></stop>
            <stop stop-color="#32BEFA" offset="100%"></stop>
        </linearGradient>
    </defs>
    <g id="页面-1" stroke="none" stroke-width="1" fill="none" fill-rule="evenodd">
        <g id="web登录备份" transform="translate(-208.000000, -150.000000)">
            <g id="dalogo" transform="translate(208.000000, 150.000000)">
                <circle id="椭圆形" fill="#FFFFFF" cx="54" cy="54" r="54"></circle>
                <g id="编组-2" transform="translate(29.000000, 18.000000)" fill-rule="nonzero">
                    <g id="编组" transform="translate(9.077820, 0.000000)" fill="url(#linearGradient-1)">
                        <path d="M20.6122452,0.347874301 L40.9221798,12.9231367 L40.9221798,34.6898167 C40.9221798,35.5327194 40.4751078,36.3112506 39.7501269,36.7308291 L21.5912222,47.2401937 C20.4733652,47.8871472 19.04706,47.4978142 18.4054803,46.3705942 C18.2025722,46.0140959 18.0958038,45.610223 18.0958038,45.1991813 L18.0958038,24.8838147 L1.22264097,15.6673839 C0.0893402523,15.0483543 -0.331727143,13.6201148 0.28216062,12.4773217 C0.466632641,12.1339147 0.732962532,11.8422032 1.05713708,11.6284889 L18.1140561,0.383598081 C18.8698123,-0.114639425 19.8427819,-0.128552763 20.6122452,0.347874301 Z" id="矩形备份-17"></path>
                    </g>
                    <g id="编组备份" transform="translate(20.461090, 48.223569) scale(-1, -1) translate(-20.461090, -48.223569) translate(0.000000, 24.447137)" fill="url(#linearGradient-2)">
                        <path d="M20.6122452,0.347874301 L40.9221798,12.9231367 L40.9221798,34.6898167 C40.9221798,35.5327194 40.4751078,36.3112506 39.7501269,36.7308291 L21.5912222,47.2401937 C20.4733652,47.8871472 19.04706,47.4978142 18.4054803,46.3705942 C18.2025722,46.0140959 18.0958038,45.610223 18.0958038,45.1991813 L18.0958038,24.8838147 L1.22264097,15.6673839 C0.0893402523,15.0483543 -0.331727143,13.6201148 0.28216062,12.4773217 C0.466632641,12.1339147 0.732962532,11.8422032 1.05713708,11.6284889 L18.1140561,0.383598081 C18.8698123,-0.114639425 19.8427819,-0.128552763 20.6122452,0.347874301 Z" id="矩形备份-17"></path>
                    </g>
                </g>
            </g>
        </g>
    </g>
</svg>